mtllib page-13-player-buildings.png.mtl
usemtl page-13-player-buildings.png

# 39 vertices
v -44.5 19 -178
v -44.5 -54 -129
v -44.5 -54 -178
v -44.5 19 -129
v -44.5 19 50
v -44.5 -54 50
v -112.5 19 -178
v -112.5 19 -129
v -61.5 53 -129
v -49.5 39 50
v -49.5 39 -129
v -61.5 53 50
v -77.5 55 -129
v -77.5 55 50
v -107.5 40 50
v -107.5 40 -129
v -112.5 19 50
v -94.5 53 50
v -94.5 53 -129
v -112.5 -54 50
v -112.5 -54 -129
v -112.5 -54 -178
v 25.5 23 135
v 38.5 -55 165
v 38.5 23 165
v 25.5 -55 135
v 38.5 23 104
v 38.5 -55 104
v 68.5 23 178
v 67.5 38 136
v 68.5 23 91
v 68.5 -55 91
v 99.5 23 165
v 99.5 23 104
v 99.5 -55 104
v 112.5 23 135
v 112.5 -55 135
v 99.5 -55 165
v 68.5 -55 178

# 60 texture coords
vt 0.859375 0.390625
vt 0.976562 0.28125
vt 0.976562 0.390625
vt 0.859375 0.28125
vt 0.546875 0.0703125
vt 0.367188 0.269531
vt 0.367188 0.0703125
vt 0.546875 0.269531
vt 0.4375 0
vt 0.367188 0
vt 0.4375 0.0703125
vt 0.296875 0.0703125
vt 0.296875 0
vt 0.507812 0
vt 0.507812 0.0703125
vt 0.46875 0.875
vt 0.339844 0.839844
vt 0.476562 0.839844
vt 0.347656 0.875
vt 0.410156 0.90625
vt 0.375 0.90625
vt 0.445312 0.90625
vt 0.554688 0.199219
vt 0.695312 0.234375
vt 0.710938 0.199219
vt 0.574219 0.234375
vt 0.636719 0.261719
vt 0.597656 0.261719
vt 0.675781 0.261719
vt 0.554688 0.0703125
vt 0.710938 0.0703125
vt 0.855469 0.394531
vt 0.992188 0.394531
vt 0.855469 0.570312
vt 0.992188 0.570312
vt 0.636719 0.472656
vt 0.714844 0.269531
vt 0.714844 0.472656
vt 0.636719 0.269531
vt 0.546875 0.472656
vt 0.996094 0.660156
vt 0.914062 0.660156
vt 0.976562 0.71875
vt 0.457031 0.472656
vt 0.457031 0.269531
vt 0.976562 0.597656
vt 0.367188 0.472656
vt 0.84375 0.59375
vt 0.914062 0.570312
vt 0.277344 0.472656
vt 0.277344 0.269531
vt 0.816406 0.660156
vt 0.1875 0.472656
vt 0.1875 0.269531
vt 0.851562 0.722656
vt 0.0976562 0.472656
vt 0.0976562 0.269531
vt 0.914062 0.753906
vt 0 0.472656
vt 0 0.269531

# 27 vertex normals
vn 1 0 0
vn -0 1 0
vn 0.759257 0.650791 0
vn 0.970143 0.242536 0
vn 0.124035 0.992278 0
vn -0.972806 0.231621 0
vn -0.707107 0.707107 0
vn -0.116841 0.993151 0
vn -0 -0 -1
vn -0 0 1
vn -1 0 0
vn -0.917556 0 0.397607
vn -0.922194 0 -0.386727
vn -0.145525 0.930614 0.335827
vn -0.397607 0 -0.917556
vn 0.138459 0.933711 0.330171
vn 0.386727 0 -0.922194
vn 0.310919 0.94145 -0.130386
vn 0.922194 0 -0.386727
vn 0.130386 0.94145 -0.310919
vn 0.917556 0 0.397607
vn -0.136927 0.938831 -0.315986
vn 0.386727 0 0.922194
vn -0.330171 0.933711 -0.138459
vn -0.397607 0 0.917556
vn -0.335827 0.930614 0.145525
vn 0.315986 0.938831 0.136927

o 1
f 1/1/1 2/2/1 3/3/1
f 1/1/1 4/4/1 2/2/1
f 2/5/1 5/6/1 6/7/1
f 2/5/1 4/8/1 5/6/1
f 7/1/2 4/2/2 1/3/2
f 7/1/2 8/4/2 4/2/2
f 9/9/3 10/7/3 11/10/3
f 9/9/3 12/11/3 10/7/3
f 11/10/4 5/12/4 4/13/4
f 11/10/4 10/7/4 5/12/4
f 13/14/5 12/11/5 9/9/5
f 13/14/5 14/15/5 12/11/5
f 8/13/6 15/7/6 16/10/6
f 8/13/6 17/12/6 15/7/6
f 16/10/7 18/11/7 19/9/7
f 16/10/7 15/7/7 18/11/7
f 19/9/8 14/15/8 13/14/8
f 19/9/8 18/11/8 14/15/8
f 16/16/9 4/17/9 8/18/9
f 16/16/9 11/19/9 4/17/9
f 13/20/9 11/19/9 16/16/9
f 13/20/9 9/21/9 11/19/9
f 19/22/9 13/20/9 16/16/9
f 5/23/10 15/24/10 17/25/10
f 5/23/10 10/26/10 15/24/10
f 10/26/10 14/27/10 15/24/10
f 10/26/10 12/28/10 14/27/10
f 15/24/10 14/27/10 18/29/10
f 6/30/10 17/25/10 20/31/10
f 6/30/10 5/23/10 17/25/10
f 20/7/11 8/8/11 21/5/11
f 20/7/11 17/6/11 8/8/11
f 22/3/11 8/4/11 7/1/11
f 22/3/11 21/2/11 8/4/11
f 3/32/9 22/33/9 1/34/9
f 22/33/9 7/35/9 1/34/9
f 23/36/12 24/37/12 25/38/12
f 23/36/12 26/39/12 24/37/12
f 27/40/13 26/39/13 23/36/13
f 27/40/13 28/8/13 26/39/13
f 29/41/14 30/42/14 25/43/14
f 31/44/15 28/8/15 27/40/15
f 31/44/15 32/45/15 28/8/15
f 33/46/16 30/42/16 29/41/16
f 34/47/17 32/45/17 31/44/17
f 34/47/17 35/6/17 32/45/17
f 34/48/18 30/42/18 36/49/18
f 36/50/19 35/6/19 34/47/19
f 36/50/19 37/51/19 35/6/19
f 31/52/20 30/42/20 34/48/20
f 33/53/21 37/51/21 36/50/21
f 33/53/21 38/54/21 37/51/21
f 27/55/22 30/42/22 31/52/22
f 29/56/23 38/54/23 33/53/23
f 29/56/23 39/57/23 38/54/23
f 23/58/24 30/42/24 27/55/24
f 25/59/25 39/57/25 29/56/25
f 25/59/25 24/60/25 39/57/25
f 25/43/26 30/42/26 23/58/26
f 36/49/27 30/42/27 33/46/27
